<svg width="400" height="300" xmlns="http://www.w3.org/2000/svg">
  <!-- White background -->
  <rect width="100%" height="100%" fill="#f8f9fa"/>

  <!-- Nail 1 - Longest (3.5") -->
  <g transform="translate(60, 50)">
    <!-- Nail head -->
    <circle cx="0" cy="0" r="12" fill="#8b9dc3" stroke="#6b7280" stroke-width="2"/>
    <!-- Nail shaft -->
    <rect x="-3" y="0" width="6" height="200" fill="#9ca3af"/>
    <!-- Nail point -->
    <polygon points="-3,200 3,200 0,210" fill="#6b7280"/>
  </g>

  <!-- Nail 2 - Medium-long (2.5") -->
  <g transform="translate(140, 50)">
    <!-- Nail head -->
    <circle cx="0" cy="0" r="12" fill="#8b9dc3" stroke="#6b7280" stroke-width="2"/>
    <!-- Nail shaft -->
    <rect x="-3" y="0" width="6" height="150" fill="#9ca3af"/>
    <!-- Nail point -->
    <polygon points="-3,150 3,150 0,160" fill="#6b7280"/>
  </g>

  <!-- Nail 3 - Medium (2") -->
  <g transform="translate(220, 50)">
    <!-- Nail head -->
    <circle cx="0" cy="0" r="12" fill="#8b9dc3" stroke="#6b7280" stroke-width="2"/>
    <!-- Nail shaft -->
    <rect x="-3" y="0" width="6" height="120" fill="#9ca3af"/>
    <!-- Nail point -->
    <polygon points="-3,120 3,120 0,130" fill="#6b7280"/>
  </g>

  <!-- Nail 4 - Shortest (1.25") -->
  <g transform="translate(300, 50)">
    <!-- Nail head -->
    <circle cx="0" cy="0" r="12" fill="#8b9dc3" stroke="#6b7280" stroke-width="2"/>
    <!-- Nail shaft -->
    <rect x="-3" y="0" width="6" height="90" fill="#9ca3af"/>
    <!-- Nail point -->
    <polygon points="-3,90 3,90 0,100" fill="#6b7280"/>
  </g>

  <!-- Optional: Add some subtle shading/texture -->
  <defs>
    <linearGradient id="nailShaft" x1="0%" y1="0%" x2="100%" y2="0%">
      <stop offset="0%" style="stop-color:#d1d5db;stop-opacity:1" />
      <stop offset="50%" style="stop-color:#9ca3af;stop-opacity:1" />
      <stop offset="100%" style="stop-color:#6b7280;stop-opacity:1" />
    </linearGradient>
  </defs>
</svg>
