<svg width="400" height="300" xmlns="http://www.w3.org/2000/svg">
  <!-- Light background -->
  <rect width="100%" height="100%" fill="#f8f9fa"/>

  <!-- Roofing nail positioned diagonally like in the image -->
  <g transform="translate(150, 80) rotate(25)">
    <!-- Large flat roofing nail head -->
    <ellipse cx="0" cy="0" rx="35" ry="8" fill="#9ca3af" stroke="#6b7280" stroke-width="2"/>
    <!-- Top surface of head (slightly darker) -->
    <ellipse cx="0" cy="-2" rx="32" ry="6" fill="#d1d5db"/>

    <!-- Nail shaft with ridges -->
    <rect x="-4" y="8" width="8" height="140" fill="#9ca3af"/>

    <!-- Ridged texture on shaft -->
    <g stroke="#6b7280" stroke-width="0.5" opacity="0.7">
      <line x1="-4" y1="20" x2="4" y2="20"/>
      <line x1="-4" y1="30" x2="4" y2="30"/>
      <line x1="-4" y1="40" x2="4" y2="40"/>
      <line x1="-4" y1="50" x2="4" y2="50"/>
      <line x1="-4" y1="60" x2="4" y2="60"/>
      <line x1="-4" y1="70" x2="4" y2="70"/>
      <line x1="-4" y1="80" x2="4" y2="80"/>
      <line x1="-4" y1="90" x2="4" y2="90"/>
      <line x1="-4" y1="100" x2="4" y2="100"/>
      <line x1="-4" y1="110" x2="4" y2="110"/>
      <line x1="-4" y1="120" x2="4" y2="120"/>
      <line x1="-4" y1="130" x2="4" y2="130"/>
      <line x1="-4" y1="140" x2="4" y2="140"/>
    </g>

    <!-- Nail point -->
    <polygon points="-4,148 4,148 0,160" fill="#6b7280"/>

    <!-- Highlight on shaft -->
    <rect x="-1" y="8" width="2" height="140" fill="#e5e7eb" opacity="0.6"/>
  </g>

  <!-- Optional shadow -->
  <ellipse cx="200" cy="250" rx="60" ry="15" fill="#000000" opacity="0.1"/>
</svg>
